<svg width="95" height="89" viewBox="0 0 95 89" fill="none" xmlns="http://www.w3.org/2000/svg">
<path d="M62.7834 0C65.1862 0 66.9712 2.07601 66.422 4.28177C66.422 4.28177 66.422 4.28177 66.422 4.34664C65.6668 7.13628 65.0489 9.99079 64.2938 12.8453C63.4699 16.2837 63.4699 16.3486 67.1085 16.4134C74.5231 16.4134 82.0063 16.4134 89.4208 16.4134C90.2446 16.4134 90.9998 16.3486 91.8236 16.4134C93.4713 16.6081 94.2952 17.5163 94.1578 19.0733C94.0892 19.8518 93.9519 20.5654 93.7459 21.2791C91.961 28.2856 90.176 35.2921 88.391 42.2986C87.5672 45.4127 87.0179 45.4775 83.3793 45.5424C77.6125 45.5424 71.8456 44.3098 66.0787 45.4775C54.4764 47.813 50.0139 57.22 53.0347 66.2376C55.2316 72.79 64.1565 75.8391 70.1979 72.271C73.9738 70.0653 75.2096 65.1996 72.944 61.7612C71.8456 60.1393 69.992 59.5555 68.2756 60.2042C66.216 60.9827 65.5295 62.2153 66.4907 64.0319C67.1772 65.3294 68.001 66.562 66.4907 67.7946C65.1176 68.8975 63.264 68.5731 61.5476 67.1459C57.5658 63.5777 58.9388 56.4415 64.2251 53.5869C71.0218 49.8891 80.084 52.8733 82.9674 59.9447C85.9195 67.1459 83.9972 73.5036 78.7796 79.0829C74.6604 83.5593 69.2368 85.9597 63.1953 87.2572C53.7898 89.2683 44.7276 88.2303 36.352 83.8188C24.3377 77.5259 19.9439 65.3942 21.4542 53.4572C21.5915 52.1597 21.8662 50.9271 22.0721 49.6296C22.5527 46.8399 22.0035 46.1912 18.9827 46.1263C13.9711 46.0614 8.89072 46.1912 3.87905 46.0614C3.87905 46.0614 3.87905 46.0614 3.8104 46.0614C1.68215 46.0614 0.0344773 44.1152 0.377743 42.0392C0.446396 41.5202 0.515049 41.1958 0.583702 41.066C2.23138 34.2541 3.8104 27.4422 5.45807 20.6303C6.35056 16.8676 6.96844 16.4134 10.9503 16.4134C15.962 16.4134 20.9737 16.4134 25.9853 16.4134C27.7703 16.4134 29.2807 15.2457 29.7613 13.6887C30.6537 10.5747 31.6149 7.46065 32.1641 4.28177V4.21689C32.5074 1.75163 34.9102 0 37.5191 0H62.7834Z" fill="#CC0000"/>
</svg>
