<svg width="107" height="77" viewBox="0 0 107 77" fill="none" xmlns="http://www.w3.org/2000/svg">
<path d="M89.9906 7.24151C83.2501 4.33321 76.0218 2.1905 68.4643 0.963278C68.3266 0.939593 68.1892 0.998783 68.1182 1.11717C67.1886 2.6719 66.1589 4.70018 65.4378 6.2944C57.3092 5.15007 49.2222 5.15007 41.2603 6.2944C40.539 4.66474 39.4719 2.6719 38.5382 1.11717C38.4673 1.00273 38.3298 0.943543 38.1921 0.963278C30.6387 2.18658 23.4105 4.32929 16.6658 7.24151C16.6074 7.26519 16.5573 7.30468 16.5241 7.35595C2.81369 26.6168 -0.942174 45.4043 0.900327 63.9588C0.908664 64.0496 0.962854 64.1364 1.03789 64.1916C10.0836 70.4382 18.846 74.2305 27.4456 76.7441C27.5833 76.7836 27.7291 76.7362 27.8167 76.6296C29.8509 74.0174 31.6643 71.263 33.2191 68.3665C33.3108 68.1969 33.2232 67.9956 33.0357 67.9285C30.1594 66.9025 27.4206 65.6516 24.7861 64.2311C24.5777 64.1167 24.561 63.8364 24.7527 63.7022C25.3071 63.3116 25.8617 62.9051 26.3911 62.4947C26.4868 62.4198 26.6203 62.4039 26.7329 62.4513C44.0406 69.8819 62.7783 69.8819 79.8818 62.4513C79.9944 62.4 80.1279 62.4158 80.2278 62.4908C80.7573 62.9012 81.3118 63.3116 81.8703 63.7022C82.062 63.8364 82.0495 64.1167 81.8411 64.2311C79.2066 65.6792 76.4678 66.9025 73.5873 67.9246C73.3998 67.9917 73.3164 68.1969 73.4082 68.3665C74.9963 71.259 76.8097 74.0134 78.8064 76.6257C78.8898 76.7362 79.0398 76.7836 79.1774 76.7441C87.8188 74.2305 96.581 70.4382 105.627 64.1916C105.706 64.1364 105.756 64.0535 105.764 63.9627C107.97 42.5117 102.071 23.8783 90.1281 7.35987C90.0989 7.30468 90.049 7.26519 89.9906 7.24151ZM35.8037 52.661C30.5929 52.661 26.2993 48.1626 26.2993 42.638C26.2993 37.1134 30.5096 32.615 35.8037 32.615C41.1393 32.615 45.3913 37.1529 45.3079 42.638C45.3079 48.1626 41.0976 52.661 35.8037 52.661ZM70.9445 52.661C65.7338 52.661 61.4403 48.1626 61.4403 42.638C61.4403 37.1134 65.6504 32.615 70.9445 32.615C76.2803 32.615 80.5321 37.1529 80.4489 42.638C80.4489 48.1626 76.2803 52.661 70.9445 52.661Z" fill="#CC0000"/>
</svg>
