<svg width="96" height="68" viewBox="0 0 96 68" fill="none" xmlns="http://www.w3.org/2000/svg">
<path d="M82.6689 66.7251C82.6689 66.7251 56.6384 67.4555 47.95 67.4555C39.2617 67.4555 13.2311 66.7251 13.2311 66.7251C6.51583 66.7251 1.01204 61.1944 1.01204 54.4463C1.01204 54.4463 0.285126 39.0718 0.285126 33.9585C0.285126 28.8453 1.01204 13.4708 1.01204 13.4708C1.01204 6.68788 6.51583 1.15722 13.2311 1.15722C13.2311 1.15722 39.2617 0.426758 47.95 0.426758C56.6384 0.426758 82.6689 1.15722 82.6689 1.15722C89.3842 1.15722 94.888 6.68788 94.888 13.436C94.888 13.436 95.6149 28.8105 95.6149 33.9237C95.6149 39.037 94.888 54.4115 94.888 54.4115C94.888 61.1944 89.3842 66.7251 82.6689 66.7251Z" fill="#CC0000"/>
<path fill-rule="evenodd" clip-rule="evenodd" d="M38.8117 48.9156V18.9666L62.9037 33.9585L38.8117 48.9156Z" fill="white"/>
</svg>
