<svg width="93" height="87" viewBox="0 0 93 87" fill="none" xmlns="http://www.w3.org/2000/svg">
<path d="M0 41.6832C0 22.0335 0 12.2087 6.49174 6.10436C12.9835 0 23.4317 0 44.3284 0H48.0224C68.9191 0 79.3672 0 85.8591 6.10436C92.3507 12.2087 92.3507 22.0335 92.3507 41.6832V45.1568C92.3507 64.8065 92.3507 74.6311 85.8591 80.7356C79.3672 86.8399 68.9191 86.8399 48.0224 86.8399H44.3284C23.4317 86.8399 12.9835 86.8399 6.49174 80.7356C0 74.6311 0 64.8065 0 45.1568V41.6832Z" fill="#CC0000"/>
<path d="M49.1383 62.5609C28.09 62.5609 16.0846 48.9923 15.5844 26.4141H26.1278C26.4741 42.9859 34.2468 50.0054 40.4035 51.4527V26.4141H50.3315V40.7064C56.4113 40.0913 62.7981 33.5783 64.953 26.4141H74.8809C73.2262 35.2427 66.2999 41.7557 61.3746 44.4332C66.2999 46.6042 74.1886 52.285 77.19 62.5609H66.2615C63.9142 55.6862 58.0659 50.3672 50.3315 49.6436V62.5609H49.1383Z" fill="white"/>
</svg>
